<svg xmlns="http://www.w3.org/2000/svg" width="26" height="26" fill="currentColor" viewBox="0 0 16 16">
  <path d="M8 0C5.824 0 5.556.01 4.703.048c-.852.04-1.436.176-1.944.377a3.92 3.92 0 0 0-1.417.923 3.92 3.92 0 0 0-.923 1.417c-.201.508-.337 1.092-.377 1.944C.01 5.556 0 5.824 0 8s.01 2.444.048 3.297c.04.852.176 1.436.377 1.944.217.552.51 1.023.923 1.417.394.413.865.706 1.417.923.508.201 1.092.337 1.944.377.853.038 1.121.048 3.297.048s2.444-.01 3.297-.048c.852-.04 1.436-.176 1.944-.377a3.92 3.92 0 0 0 1.417-.923 3.92 3.92 0 0 0 .923-1.417c.201-.508.337-1.092.377-1.944.038-.853.048-1.121.048-3.297s-.01-2.444-.048-3.297c-.04-.852-.176-1.436-.377-1.944a3.92 3.92 0 0 0-.923-1.417 3.92 3.92 0 0 0-1.417-.923c-.508-.201-1.092-.337-1.944-.377C10.444.01 10.176 0 8 0zm0 1.44c2.136 0 2.387.008 3.23.046.777.036 1.2.165 1.478.274.372.145.638.318.918.598.28.28.453.546.598.918.109.278.238.701.274 1.478.038.843.046 1.094.046 3.23s-.008 2.387-.046 3.23c-.036.777-.165 1.2-.274 1.478a2.48 2.48 0 0 1-.598.918c-.28.28-.546.453-.918.598-.278.109-.701.238-1.478.274-.843.038-1.094.046-3.23.046s-2.387-.008-3.23-.046c-.777-.036-1.2-.165-1.478-.274a2.48 2.48 0 0 1-.918-.598 2.48 2.48 0 0 1-.598-.918c-.109-.278-.238-.701-.274-1.478C1.448 10.387 1.44 10.136 1.44 8s.008-2.387.046-3.23c.036-.777.165-1.2.274-1.478.145-.372.318-.638.598-.918.28-.28.546-.453.918-.598.278-.109.701-.238 1.478-.274.843-.038 1.094-.046 3.23-.046zM8 3.887a4.113 4.113 0 1 0 0 8.226 4.113 4.113 0 0 0 0-8.226zm0 6.78a2.667 2.667 0 1 1 0-5.334 2.667 2.667 0 0 1 0 5.334zM12.271 3.732a.96.96 0 1 0 0-1.92.96.96 0 0 0 0 1.92z"></path>
</svg>
